# xmcd
#
# Track frame offsets:
#	150
#	14360
#	27851
#	41500
#	54376
#	68570
#	82697
#	99046
#	115114
#	133717
#	148618
#	164926
#	178719
#	193639
#	211297
#	224854
#	240241
#	255279
#	274919
#	287814
#	302887
#
# Disc length: 4249 seconds
#
# Revision: 0
# Processed by: cddbd v1.5.2PL0 Copyright (c) Steve Scherf et al.
# Submitted via: EZCDAudioConverter 3.1.0.1
#
DISCID=2a109715
DTITLE=Hott Country Volume 256 CAN
DYEAR=2017
DGENRE=country
TTITLE0=Brantley Gilbert - The Ones That Like Me
TTITLE1=Tyler Farr - I Should Go To Church Sometime
TTITLE2=Emerson Drive - Just Got Paid
TTITLE3=Dallas Smith - Sky Stays This Blue
TTITLE4=Josh Turner - All About You
TTITLE5=Chris Janson - Fix A Drink
TTITLE6=Eric Ethridge - Liquor's Callin' The Shots
TTITLE7=Kenny Chesney - All The Pretty Girls
TTITLE8=Chris Stapleton - Either Way
TTITLE9=Cold Creek County - Homemade
TTITLE10=Gary Allan - Mess Me Up
TTITLE11=Jordan Davis - Singles You Up
TTITLE12=Chris Henderson - My Regret
TTITLE13=Lindsay Ell - Waiting On You
TTITLE14=Chris Young - Losing Sleep
TTITLE15=Blackjack Billy ft. Madeline Merlo - How To Get The Girl
TTITLE16=Lauren Alaina - Doin' Fine
TTITLE17=Billy Ray Cyrus - Achy Breaky Heart [Remix]
TTITLE18=Granger Smith - Happens Like That
TTITLE19=Jojo Mason - Something To Wrap My Heart Around
TTITLE20=Rick Monroe - This Side of You
EXTD=
EXTT0=
EXTT1=
EXTT2=
EXTT3=
EXTT4=
EXTT5=
EXTT6=
EXTT7=
EXTT8=
EXTT9=
EXTT10=
EXTT11=
EXTT12=
EXTT13=
EXTT14=
EXTT15=
EXTT16=
EXTT17=
EXTT18=
EXTT19=
EXTT20=
PLAYORDER=
